<svg width="137" height="27" viewBox="0 0 137 27" fill="none" xmlns="http://www.w3.org/2000/svg">
<path d="M10.256 20L4.592 12.56V20H0.488V3.152H4.592V10.544L10.208 3.152H15.032L8.504 11.408L15.272 20H10.256ZM25.4544 6.464C26.9904 6.464 28.2224 6.976 29.1504 8C30.0784 9.008 30.5424 10.4 30.5424 12.176V20H26.4624V12.728C26.4624 11.832 26.2304 11.136 25.7664 10.64C25.3024 10.144 24.6784 9.896 23.8944 9.896C23.1104 9.896 22.4864 10.144 22.0224 10.64C21.5584 11.136 21.3264 11.832 21.3264 12.728V20H17.2224V2.24H21.3264V8.408C21.7424 7.816 22.3104 7.344 23.0304 6.992C23.7504 6.64 24.5584 6.464 25.4544 6.464ZM32.5783 13.28C32.5783 11.904 32.8343 10.696 33.3463 9.656C33.8743 8.616 34.5863 7.816 35.4823 7.256C36.3783 6.696 37.3783 6.416 38.4823 6.416C39.4263 6.416 40.2503 6.608 40.9543 6.992C41.6743 7.376 42.2263 7.88 42.6103 8.504V6.608H46.7143V20H42.6103V18.104C42.2103 18.728 41.6503 19.232 40.9303 19.616C40.2263 20 39.4023 20.192 38.4583 20.192C37.3703 20.192 36.3783 19.912 35.4823 19.352C34.5863 18.776 33.8743 17.968 33.3463 16.928C32.8343 15.872 32.5783 14.656 32.5783 13.28ZM42.6103 13.304C42.6103 12.28 42.3223 11.472 41.7463 10.88C41.1863 10.288 40.4983 9.992 39.6823 9.992C38.8663 9.992 38.1703 10.288 37.5943 10.88C37.0343 11.456 36.7543 12.256 36.7543 13.28C36.7543 14.304 37.0343 15.12 37.5943 15.728C38.1703 16.32 38.8663 16.616 39.6823 16.616C40.4983 16.616 41.1863 16.32 41.7463 15.728C42.3223 15.136 42.6103 14.328 42.6103 13.304ZM53.7873 2.24V20H49.6833V2.24H53.7873ZM58.8254 5.216C58.1054 5.216 57.5134 5.008 57.0494 4.592C56.6014 4.16 56.3774 3.632 56.3774 3.008C56.3774 2.368 56.6014 1.84 57.0494 1.424C57.5134 0.991999 58.1054 0.775999 58.8254 0.775999C59.5294 0.775999 60.1054 0.991999 60.5534 1.424C61.0174 1.84 61.2494 2.368 61.2494 3.008C61.2494 3.632 61.0174 4.16 60.5534 4.592C60.1054 5.008 59.5294 5.216 58.8254 5.216ZM60.8654 6.608V20H56.7614V6.608H60.8654ZM63.0236 13.328C63.0236 12 63.2956 10.816 63.8396 9.776C64.3996 8.736 65.1436 7.928 66.0716 7.352C67.0156 6.76 68.0396 6.464 69.1436 6.464C69.9916 6.464 70.7516 6.616 71.4236 6.92C72.0956 7.208 72.6396 7.616 73.0556 8.144V6.608H77.1596V26.384H73.0556V18.32C72.5916 18.88 72.0236 19.328 71.3516 19.664C70.6956 20 69.9436 20.168 69.0956 20.168C68.0076 20.168 66.9996 19.88 66.0716 19.304C65.1436 18.728 64.3996 17.92 63.8396 16.88C63.2956 15.84 63.0236 14.656 63.0236 13.328ZM73.0556 13.304C73.0556 12.584 72.9116 11.984 72.6236 11.504C72.3516 11.008 71.9916 10.64 71.5436 10.4C71.0956 10.144 70.6236 10.016 70.1276 10.016C69.6476 10.016 69.1836 10.144 68.7356 10.4C68.2876 10.64 67.9196 11.008 67.6316 11.504C67.3436 12 67.1996 12.608 67.1996 13.328C67.1996 14.048 67.3436 14.656 67.6316 15.152C67.9196 15.632 68.2876 16 68.7356 16.256C69.1836 16.496 69.6476 16.616 70.1276 16.616C70.6076 16.616 71.0716 16.496 71.5196 16.256C71.9836 16 72.3516 15.624 72.6236 15.128C72.9116 14.632 73.0556 14.024 73.0556 13.304ZM92.2486 3.152V6.44H87.7846V20H83.6806V6.44H79.2166V3.152H92.2486ZM106.932 13.088C106.932 13.472 106.908 13.872 106.86 14.288H97.5723C97.6363 15.12 97.9003 15.76 98.3643 16.208C98.8443 16.64 99.4283 16.856 100.116 16.856C101.14 16.856 101.852 16.424 102.252 15.56H106.62C106.396 16.44 105.988 17.232 105.396 17.936C104.82 18.64 104.092 19.192 103.212 19.592C102.332 19.992 101.348 20.192 100.26 20.192C98.9483 20.192 97.7803 19.912 96.7563 19.352C95.7323 18.792 94.9323 17.992 94.3563 16.952C93.7803 15.912 93.4923 14.696 93.4923 13.304C93.4923 11.912 93.7723 10.696 94.3323 9.656C94.9083 8.616 95.7083 7.816 96.7323 7.256C97.7563 6.696 98.9323 6.416 100.26 6.416C101.556 6.416 102.708 6.688 103.716 7.232C104.724 7.776 105.508 8.552 106.068 9.56C106.644 10.568 106.932 11.744 106.932 13.088ZM102.732 12.008C102.732 11.304 102.492 10.744 102.012 10.328C101.532 9.912 100.932 9.704 100.212 9.704C99.5243 9.704 98.9403 9.904 98.4603 10.304C97.9963 10.704 97.7083 11.272 97.5963 12.008H102.732ZM108.281 13.304C108.281 11.912 108.561 10.696 109.121 9.656C109.697 8.616 110.489 7.816 111.497 7.256C112.521 6.696 113.689 6.416 115.001 6.416C116.681 6.416 118.081 6.856 119.201 7.736C120.337 8.616 121.081 9.856 121.433 11.456H117.065C116.697 10.432 115.985 9.92 114.929 9.92C114.177 9.92 113.577 10.216 113.129 10.808C112.681 11.384 112.457 12.216 112.457 13.304C112.457 14.392 112.681 15.232 113.129 15.824C113.577 16.4 114.177 16.688 114.929 16.688C115.985 16.688 116.697 16.176 117.065 15.152H121.433C121.081 16.72 120.337 17.952 119.201 18.848C118.065 19.744 116.665 20.192 115.001 20.192C113.689 20.192 112.521 19.912 111.497 19.352C110.489 18.792 109.697 17.992 109.121 16.952C108.561 15.912 108.281 14.696 108.281 13.304ZM131.861 6.464C133.397 6.464 134.629 6.976 135.557 8C136.485 9.008 136.949 10.4 136.949 12.176V20H132.869V12.728C132.869 11.832 132.637 11.136 132.173 10.64C131.709 10.144 131.085 9.896 130.301 9.896C129.517 9.896 128.893 10.144 128.429 10.64C127.965 11.136 127.733 11.832 127.733 12.728V20H123.629V2.24H127.733V8.408C128.149 7.816 128.717 7.344 129.437 6.992C130.157 6.64 130.965 6.464 131.861 6.464Z" fill="#00C1C1"/>
</svg>
